<svg xmlns="http://www.w3.org/2000/svg" version="1.1" xmlns:xlink="http://www.w3.org/1999/xlink" xmlns:svgjs="http://svgjs.dev/svgjs" width="1440" height="560" preserveAspectRatio="none" viewBox="0 0 1440 560"><g mask="url(&quot;#SvgjsMask1027&quot;)" fill="none"><rect width="1440" height="560" x="0" y="0" fill="rgba(255, 255, 255, 1)"></rect><path d="M720 754.3C837.74 746.04 923.29 649.65 999.38 559.38 1067.34 478.76 1117.6 385.4 1119.84 280 1122.15 172.25 1083.26 68.93 1011.58-11.58 935.22-97.37 834.75-174.48 720-169.28 608.14-164.21 526.68-71.22 453.68 13.68 387.68 90.42 343.21 179.22 333.73 280 323.08 393.19 326.55 513.48 398.36 601.64 476.29 697.32 596.92 762.94 720 754.3" fill="rgba(255, 90, 95, 1)"></path><path d="M720 586.9C796.19 581.55 851.54 519.18 900.77 460.77 944.75 408.61 977.27 348.2 978.72 280 980.22 210.28 955.05 143.42 908.67 91.33 859.26 35.82 794.25-14.07 720-10.71 647.62-7.43 594.91 52.74 547.67 107.67 504.97 157.33 476.2 214.79 470.06 280 463.17 353.24 465.42 431.07 511.88 488.12 562.3 550.03 640.36 592.49 720 586.9" fill="rgba(245, 104, 108, 1)"></path><path d="M720 419.5C754.63 417.07 779.79 388.72 802.17 362.17 822.16 338.46 836.94 311 837.6 280 838.28 248.31 826.84 217.92 805.76 194.24 783.3 169.01 753.75 146.33 720 147.86 687.1 149.35 663.14 176.7 641.67 201.67 622.26 224.24 609.18 250.36 606.39 280 603.26 313.29 604.28 348.67 625.4 374.6 648.32 402.74 683.8 422.04 720 419.5" fill="rgba(239, 147, 150, 1)"></path></g><defs><mask id="SvgjsMask1027"><rect width="1440" height="560" fill="#ffffff"></rect></mask></defs></svg>