<svg id="canvas" height="auto" xmlns="http://www.w3.org/2000/svg" version="1.1" xmlns:xlink="http://www.w3.org/1999/xlink" viewBox="0 0 900 512" width="auto" style="width: auto; height: auto;"><rect width="900" height="512" fill="#ffffffff"/><path d="M104.19163321819804 292.42464289914517C67.13212284770873 309.7472414097631 20.73527807952871 306.3339702645844 -22.359922502367567 307.6020299099464C-65.45512308426385 308.87008955530837 -117.19505657323555 317.0800355345789 -154.37957027317952 300.033000771317C-191.5640839731235 282.98596600805513 -214.35540567052925 236.33306202887422 -245.4670047020315 205.31982133037502C-276.5786037335337 174.30658063187582 -324.29614198332774 152.60111800298841 -341.04916446219295 113.95355658032167C-357.80218694105815 75.30599515765493 -345.87950206330856 18.3553109070898 -345.98513957522255 -26.565547205625307C-346.09077708713653 -71.48640531834042 -357.0900382415621 -118.35359192986652 -341.6829895336769 -155.5715920959689C-326.2759408257917 -192.78959226207127 -283.52519249904196 -219.41416618628313 -253.54284732791106 -249.8735482022396C-223.56050215678016 -280.33293021819605 -197.81998075775664 -321.86079052988833 -161.78891850689146 -338.32788419170777C-125.75785625602629 -354.7949778535272 -79.14200060973195 -348.63812553478544 -37.35647382271998 -348.6761101731563C4.429052964291998 -348.71409481152716 45.25556736527005 -355.34840755477205 88.92424221518047 -338.55579202193303C132.5929170650909 -321.763176489094 187.23086935144863 -280.1429546099572 224.6555752767424 -247.920416976122C262.0802812020362 -215.6978793422868 289.70193124389164 -188.9729061427161 313.47247776694314 -145.22056621892182C337.24302428999465 -101.46822629512752 359.4578371810238 -36.1682384396326 367.27885441505157 14.59362256664383C375.0998716490793 65.35548357292026 388.27886695352345 127.83846377213769 360.39858117110964 159.3505998187369C332.51829538869583 190.86273586533616 242.69829771272032 181.48743166617112 199.99713972056838 203.6664388462392C157.29598172841645 225.8454460263073 141.25114358868734 275.10204438852725 104.19163321819804 292.42464289914517C67.13212284770873 309.7472414097631 20.73527807952871 306.3339702645844 -22.359922502367567 307.6020299099464 " fill="#ff5a5fff"/><path d="M1003.0348431917287 906.2722711671462C970.8030823979229 932.0219367157117 941.9930844323956 959.4796998478423 901.5665109171484 968.6682876603411C861.1399374019011 977.8568754728399 802.3894543440841 989.0134909358112 760.4754021002454 961.4037980421386C718.5613498564067 933.7941051484661 683.7769940752646 844.2453100527176 650.0821974541159 803.0101302983057C616.3874008329673 761.7749505438939 574.2470794577378 747.4399372887101 558.3066223733535 713.9927195156674C542.3661652889692 680.5455017426248 554.234258901039 643.2760542080448 554.4394549478106 602.3268236600496C554.6446509945822 561.3775931120545 544.3201357924039 507.8586983699962 559.5377986539833 468.2973362276965C574.7554615155626 428.7359740853969 614.2216151976638 396.55799476164094 645.7454321172868 364.95865080625174C677.2692490369097 333.3593068508625 704.2958546626144 294.8492147332411 748.6807001717207 278.70127249536114C793.0655456808269 262.55333025748115 860.6414225957324 267.6955407622353 912.054505171924 268.0709973789718C963.4675877481156 268.44645399570834 1015.2508260972828 263.62099691995013 1057.15919562887 280.9540121957803C1099.0675651604574 298.2870274716105 1130.5454706685846 338.2661877143031 1163.5047223614476 372.06908903395276C1196.4639740543107 405.8719903536024 1240.694124875146 442.3843852494265 1254.9147057860491 483.77142011367846C1269.1352866969523 525.1584549779304 1251.0734447647726 574.1309081083966 1248.8282078268671 620.3912982194645C1246.5829708889614 666.6516883305326 1267.0884728497629 729.0372614218392 1241.4432841586156 761.3337607800863C1215.7980954674683 793.6302601383335 1134.691815841131 790.0138759711044 1094.9570756799833 814.1702943689477C1055.2223355188355 838.3267127667909 1035.2666039855344 880.5226056185807 1003.0348431917287 906.2722711671462C970.8030823979229 932.0219367157117 941.9930844323956 959.4796998478423 901.5665109171484 968.6682876603411 " fill="#ff5a5fff" transform="matrix(-1,1.2246467991473532e-16,-1.2246467991473532e-16,-1,1810.3233642578125,1245.873291015625)"/></svg>