<svg id="canvas" height="auto" xmlns="http://www.w3.org/2000/svg" version="1.1" xmlns:xlink="http://www.w3.org/1999/xlink" viewBox="0 0 1000 612" width="auto" style="width: auto; height: auto;"><rect width="1000" height="612" fill="#ff385cff"/><path d="M767.7914099832825 488.10059314408187C729.6702150121106 502.5090936311613 667.9523306653032 474.6198867424103 622.4199838177942 470.74234459372684C576.8876369702853 466.8648024450434 530.9721590696045 480.9393800957802 494.5973288982291 464.8353402519809C458.2224987268537 448.73130040818154 430.73483892153035 407.35504741755636 404.17100278954183 374.1181055309309C377.6071666575533 340.88116364430545 343.59845486898774 304.36060485159516 335.214312106298 265.41368893222807C326.83016934360825 226.46677301286098 344.27714409532575 181.86196786746314 353.86614621340317 140.43661001472827C363.4551483314806 99.01125216199341 368.0698312114449 48.288841116175576 392.74832481476244 16.861541815818924C417.4268184180801 -14.565757484537727 464.06864958873973 -29.451545080283168 501.9371078333087 -48.127185787411605C539.8055660778775 -66.80282649454004 573.0977970844942 -95.27164145898723 619.9590742821761 -95.1923024269517C666.8203514798577 -95.11296339491616 735.9466562846671 -67.90436243012972 783.104771019399 -47.65115159519837C830.2628857541308 -27.39794076026702 880.8802983731209 -7.227562005314525 902.9077626905671 26.326962582636412C924.9352270080133 59.88148717058735 908.4916403307546 110.40155955622842 915.269556924076 153.67599593250725C922.0474735173974 196.9504323087861 954.2623294637037 247.5376898838523 943.5752622504954 285.9735808403094C932.888195037287 324.4094717967665 880.4444623560279 350.60350628728787 851.1471536448257 384.29134167124994C821.8498449336236 417.979177055212 805.9126049544544 473.69209265700243 767.7914099832825 488.10059314408187C729.6702150121106 502.5090936311613 667.9523306653032 474.6198867424103 622.4199838177942 470.74234459372684 " fill="none" stroke-width="4" stroke="#f9f9f9" opacity="0.5"/><path d="M604.2136530492453 857.0439140170731C561.2732260389631 893.0796489606823 491.9520080212509 911.6480856139299 432.98909431948977 913.7992166021571C374.02618061772864 915.9503475903844 296.9342146072722 901.9699133345378 250.4361708386785 869.9506999464364C203.9381270700848 837.9314865583351 172.7287991227946 778.4834340981749 154.0008317079275 721.6839362735491C135.27286429306037 664.8844384489232 117.78057718099392 583.642257258373 138.0683663494758 529.1537129986814C158.3561555179577 474.6651687389897 223.26029611620316 431.59319410079115 275.7275667188188 394.75267071539923C328.19483732143453 357.9121473300073 404.99236859984114 311.60896259211046 452.8719899651699 308.11057268632965C500.7516113304987 304.61218278054884 526.1172812035937 341.19224120585875 563.0052949107913 373.7623312807142C599.893308617989 406.3324213555697 652.9290119632906 449.56070052549785 674.2000722083558 503.5311131354624C695.471132453421 557.501525745427 702.2960595743677 638.6660067935668 690.6316563811827 697.5848069405018C678.9672531879976 756.5036070874369 647.1540800595274 821.0081790734639 604.2136530492453 857.0439140170731C561.2732260389631 893.0796489606823 491.9520080212509 911.6480856139299 432.98909431948977 913.7992166021571 " fill="#f9f9f9" stroke="none" opacity="0.5"/><path d="M952.1476263803943 325.38198581318676C919.7427316833908 346.1507140293068 884.7808855032001 359.63151749868626 845.6037081408792 364.72760936793026C806.4265307785583 369.82370123717425 756.7670517563752 382.34989958622685 717.0845622064686 355.9585370286507C677.402072656562 329.56717447107457 638.2920097807751 245.59015381369164 607.5087708414402 206.37943402247345C576.7255319021053 167.16871423125525 546.5207962963399 155.48105047587688 532.3851285704595 120.69421828134148C518.2494608445792 85.90738608680607 522.8130904980956 36.52104438938591 522.6947644861579 -2.341559144739051C522.5764384742201 -41.20416267886398 515.3486186378632 -82.9943713475796 531.6751724988335 -112.48140292340815C548.0017263598037 -141.9684344992367 592.4523117504516 -153.57994289114728 620.6540876519792 -179.26374859971042C648.8558635535069 -204.94755430827354 672.1214530056374 -249.80980751464182 700.885827907999 -266.58423717478695C729.6502028103606 -283.3586668349321 759.7678269795697 -279.5789131670849 793.2403370661491 -279.91032656058127C826.7128471527285 -280.2417399540776 868.5919602905694 -283.86190267239596 901.7208884274753 -268.57271753576504C934.8498165643813 -253.28353239913412 963.675073174302 -214.6330493909394 992.0139058875845 -188.17521574079578C1020.352738600867 -161.7173820906522 1047.8508912330428 -146.8484344440796 1071.7538847071703 -109.82571563490347C1095.6568781812978 -72.80299682572735 1125.1709610056191 -10.67541649057199 1135.4318667323491 33.96109711426095C1145.6927724590794 78.5976107190939 1149.2191174691259 123.63434216793604 1133.319319067551 157.99336599409418C1117.419520665976 192.3523898202523 1070.2283584374259 212.21713676802761 1040.0330763229 240.1152400712097C1009.8377942083738 268.0133433743918 984.5525210773977 304.6132575970667 952.1476263803943 325.38198581318676C919.7427316833908 346.1507140293068 884.7808855032001 359.63151749868626 845.6037081408792 364.72760936793026 " fill="#f9f9f9" stroke="none" opacity="0.5"/></svg>